<svg width="32" height="31" viewBox="0 0 32 31" fill="none" xmlns="http://www.w3.org/2000/svg">
<path d="M3.83968 0.499935H28.975C30.3539 0.499935 31.4726 1.61894 31.4726 3.00003V28C31.4726 29.3811 30.354 30.5001 28.975 30.5001H3.83968C2.46085 30.5001 1.34223 29.3811 1.34223 28V3.00003C1.34223 1.61893 2.46086 0.499935 3.83968 0.499935Z" fill="black" fill-opacity="0.01" stroke="#CF446F"/>
<path d="M19.8604 8H13.1393C10.8569 8 9 9.857 9 12.1394V18.8605C9 21.143 10.8569 22.9999 13.1393 22.9999H19.8604C22.143 22.9999 23.9999 21.1429 23.9999 18.8605V12.1394C24 9.857 22.143 8 19.8604 8ZM22.6691 18.8605C22.6691 20.4092 21.4092 21.669 19.8605 21.669H13.1393C11.5907 21.6691 10.3309 20.4092 10.3309 18.8605V12.1394C10.3309 10.5908 11.5907 9.33086 13.1393 9.33086H19.8604C21.4091 9.33086 22.669 10.5908 22.669 12.1394V18.8605H22.6691Z" fill="#CF446F"/>
<path d="M16.5 11.635C14.3687 11.635 12.6349 13.3689 12.6349 15.5001C12.6349 17.6313 14.3687 19.365 16.5 19.365C18.6312 19.365 20.3651 17.6313 20.3651 15.5001C20.3651 13.3689 18.6312 11.635 16.5 11.635ZM16.5 18.0341C15.1026 18.0341 13.9657 16.8973 13.9657 15.5C13.9657 14.1026 15.1025 12.9658 16.5 12.9658C17.8974 12.9658 19.0342 14.1026 19.0342 15.5C19.0342 16.8973 17.8973 18.0341 16.5 18.0341Z" fill="#CF446F"/>
<path d="M20.5272 10.5065C20.2708 10.5065 20.0189 10.6103 19.8378 10.7922C19.6558 10.9732 19.5512 11.2252 19.5512 11.4825C19.5512 11.739 19.6559 11.9909 19.8378 12.1728C20.0188 12.3538 20.2708 12.4585 20.5272 12.4585C20.7845 12.4585 21.0356 12.3538 21.2175 12.1728C21.3993 11.9909 21.5031 11.7389 21.5031 11.4825C21.5031 11.2252 21.3993 10.9732 21.2175 10.7922C21.0365 10.6103 20.7845 10.5065 20.5272 10.5065Z" fill="#CF446F"/>
</svg>
