<svg xmlns="http://www.w3.org/2000/svg" xmlns:xlink="http://www.w3.org/1999/xlink"><symbol id="account" viewBox="0 0 33 33">
<circle cx="16.5" cy="16.5" r="15.5" stroke="#2C78F6" stroke-width="2"/>
<mask id="mask0" mask-type="alpha" maskUnits="userSpaceOnUse" x="0" y="0" width="33" height="33">
<circle cx="16.5" cy="16.5" r="16.5" fill="white"/>
</mask>
<g mask="url(#mask0)">
<circle cx="16.5" cy="11.8954" r="3.98837" stroke="#2C78F6" stroke-width="2"/>
<path d="M27.3953 29.9302C27.3953 35.705 22.5485 40.4418 16.5 40.4418C10.4515 40.4418 5.60464 35.705 5.60464 29.9302C5.60464 24.1554 10.4515 19.4186 16.5 19.4186C22.5485 19.4186 27.3953 24.1554 27.3953 29.9302Z" stroke="#2C78F6" stroke-width="2"/>
</g>
</symbol><symbol id="instagram" viewBox="0 0 32 31">
<path d="M3.83968 0.499935H28.975C30.3539 0.499935 31.4726 1.61894 31.4726 3.00003V28C31.4726 29.3811 30.354 30.5001 28.975 30.5001H3.83968C2.46085 30.5001 1.34223 29.3811 1.34223 28V3.00003C1.34223 1.61893 2.46086 0.499935 3.83968 0.499935Z" fill="black" fill-opacity="0.01" stroke="#CF446F"/>
<path d="M19.8604 8H13.1393C10.8569 8 9 9.857 9 12.1394V18.8605C9 21.143 10.8569 22.9999 13.1393 22.9999H19.8604C22.143 22.9999 23.9999 21.1429 23.9999 18.8605V12.1394C24 9.857 22.143 8 19.8604 8ZM22.6691 18.8605C22.6691 20.4092 21.4092 21.669 19.8605 21.669H13.1393C11.5907 21.6691 10.3309 20.4092 10.3309 18.8605V12.1394C10.3309 10.5908 11.5907 9.33086 13.1393 9.33086H19.8604C21.4091 9.33086 22.669 10.5908 22.669 12.1394V18.8605H22.6691Z" fill="#CF446F"/>
<path d="M16.5 11.635C14.3687 11.635 12.6349 13.3689 12.6349 15.5001C12.6349 17.6313 14.3687 19.365 16.5 19.365C18.6312 19.365 20.3651 17.6313 20.3651 15.5001C20.3651 13.3689 18.6312 11.635 16.5 11.635ZM16.5 18.0341C15.1026 18.0341 13.9657 16.8973 13.9657 15.5C13.9657 14.1026 15.1025 12.9658 16.5 12.9658C17.8974 12.9658 19.0342 14.1026 19.0342 15.5C19.0342 16.8973 17.8973 18.0341 16.5 18.0341Z" fill="#CF446F"/>
<path d="M20.5272 10.5065C20.2708 10.5065 20.0189 10.6103 19.8378 10.7922C19.6558 10.9732 19.5512 11.2252 19.5512 11.4825C19.5512 11.739 19.6559 11.9909 19.8378 12.1728C20.0188 12.3538 20.2708 12.4585 20.5272 12.4585C20.7845 12.4585 21.0356 12.3538 21.2175 12.1728C21.3993 11.9909 21.5031 11.7389 21.5031 11.4825C21.5031 11.2252 21.3993 10.9732 21.2175 10.7922C21.0365 10.6103 20.7845 10.5065 20.5272 10.5065Z" fill="#CF446F"/>
</symbol><symbol id="logo" viewBox="0 0 171 21">
<path d="M8.937 15.716C7.389 15.716 5.994 15.401 4.752 14.771C3.528 14.123 2.565 13.232 1.863 12.098C1.179 10.964 0.837 9.677 0.837 8.237C0.837 6.797 1.179 5.51 1.863 4.376C2.565 3.242 3.528 2.36 4.752 1.73C5.994 1.082 7.389 0.758 8.937 0.758C10.467 0.758 11.799 1.082 12.933 1.73C14.085 2.36 14.922 3.269 15.444 4.457L12.177 6.212C11.421 4.88 10.332 4.214 8.91 4.214C7.812 4.214 6.903 4.574 6.183 5.294C5.463 6.014 5.103 6.995 5.103 8.237C5.103 9.479 5.463 10.46 6.183 11.18C6.903 11.9 7.812 12.26 8.91 12.26C10.35 12.26 11.439 11.594 12.177 10.262L15.444 12.044C14.922 13.196 14.085 14.096 12.933 14.744C11.799 15.392 10.467 15.716 8.937 15.716ZM30.1548 4.43H25.2408V15.5H21.0558V4.43H16.1418V0.973999H30.1548V4.43ZM38.5976 15.716C37.0676 15.716 35.6906 15.401 34.4666 14.771C33.2606 14.123 32.3156 13.232 31.6316 12.098C30.9476 10.964 30.6056 9.677 30.6056 8.237C30.6056 6.797 30.9476 5.51 31.6316 4.376C32.3156 3.242 33.2606 2.36 34.4666 1.73C35.6906 1.082 37.0676 0.758 38.5976 0.758C40.1276 0.758 41.4956 1.082 42.7016 1.73C43.9076 2.36 44.8526 3.242 45.5366 4.376C46.2206 5.51 46.5626 6.797 46.5626 8.237C46.5626 9.677 46.2206 10.964 45.5366 12.098C44.8526 13.232 43.9076 14.123 42.7016 14.771C41.4956 15.401 40.1276 15.716 38.5976 15.716ZM38.5976 12.26C39.6776 12.26 40.5596 11.9 41.2436 11.18C41.9456 10.442 42.2966 9.461 42.2966 8.237C42.2966 7.013 41.9456 6.041 41.2436 5.321C40.5596 4.583 39.6776 4.214 38.5976 4.214C37.5176 4.214 36.6266 4.583 35.9246 5.321C35.2226 6.041 34.8716 7.013 34.8716 8.237C34.8716 9.461 35.2226 10.442 35.9246 11.18C36.6266 11.9 37.5176 12.26 38.5976 12.26ZM63.6346 15.5V6.806L59.2876 14.096H57.5056L53.2666 6.779V15.5H49.4596V0.973999H53.8606L58.5046 9.371L63.4456 0.973999H67.3876L67.4416 15.5H63.6346Z" fill="#30353E"/>
<path d="M85.9212 0.973999V15.5H81.7092V4.43H75.6612V15.5H71.4762V0.973999H85.9212ZM96.7636 15.716C95.2336 15.716 93.8566 15.401 92.6326 14.771C91.4266 14.123 90.4816 13.232 89.7976 12.098C89.1136 10.964 88.7716 9.677 88.7716 8.237C88.7716 6.797 89.1136 5.51 89.7976 4.376C90.4816 3.242 91.4266 2.36 92.6326 1.73C93.8566 1.082 95.2336 0.758 96.7636 0.758C98.2936 0.758 99.6616 1.082 100.868 1.73C102.074 2.36 103.019 3.242 103.703 4.376C104.387 5.51 104.729 6.797 104.729 8.237C104.729 9.677 104.387 10.964 103.703 12.098C103.019 13.232 102.074 14.123 100.868 14.771C99.6616 15.401 98.2936 15.716 96.7636 15.716ZM96.7636 12.26C97.8436 12.26 98.7256 11.9 99.4096 11.18C100.112 10.442 100.463 9.461 100.463 8.237C100.463 7.013 100.112 6.041 99.4096 5.321C98.7256 4.583 97.8436 4.214 96.7636 4.214C95.6836 4.214 94.7926 4.583 94.0906 5.321C93.3886 6.041 93.0376 7.013 93.0376 8.237C93.0376 9.461 93.3886 10.442 94.0906 11.18C94.7926 11.9 95.6836 12.26 96.7636 12.26ZM116.185 0.758C117.535 0.758 118.759 1.073 119.857 1.703C120.973 2.315 121.846 3.188 122.476 4.322C123.106 5.438 123.421 6.743 123.421 8.237C123.421 9.731 123.106 11.045 122.476 12.179C121.846 13.295 120.973 14.168 119.857 14.798C118.759 15.41 117.535 15.716 116.185 15.716C114.331 15.716 112.873 15.131 111.811 13.961V20.738H107.599V0.973999H111.622V2.648C112.666 1.388 114.187 0.758 116.185 0.758ZM115.456 12.26C116.536 12.26 117.418 11.9 118.102 11.18C118.804 10.442 119.155 9.461 119.155 8.237C119.155 7.013 118.804 6.041 118.102 5.321C117.418 4.583 116.536 4.214 115.456 4.214C114.376 4.214 113.485 4.583 112.783 5.321C112.099 6.041 111.757 7.013 111.757 8.237C111.757 9.461 112.099 10.442 112.783 11.18C113.485 11.9 114.376 12.26 115.456 12.26ZM138.049 4.43H133.135V15.5H128.95V4.43H124.036V0.973999H138.049V4.43ZM145.938 0.758C148.188 0.758 149.916 1.298 151.122 2.378C152.328 3.44 152.931 5.051 152.931 7.211V15.5H148.989V13.691C148.197 15.041 146.721 15.716 144.561 15.716C143.445 15.716 142.473 15.527 141.645 15.149C140.835 14.771 140.214 14.249 139.782 13.583C139.35 12.917 139.134 12.161 139.134 11.315C139.134 9.965 139.638 8.903 140.646 8.129C141.672 7.355 143.247 6.968 145.371 6.968H148.719C148.719 6.05 148.44 5.348 147.882 4.862C147.324 4.358 146.487 4.106 145.371 4.106C144.597 4.106 143.832 4.232 143.076 4.484C142.338 4.718 141.708 5.042 141.186 5.456L139.674 2.513C140.466 1.955 141.411 1.523 142.509 1.217C143.625 0.911 144.768 0.758 145.938 0.758ZM145.614 12.881C146.334 12.881 146.973 12.719 147.531 12.395C148.089 12.053 148.485 11.558 148.719 10.91V9.425H145.83C144.102 9.425 143.238 9.992 143.238 11.126C143.238 11.666 143.445 12.098 143.859 12.422C144.291 12.728 144.876 12.881 145.614 12.881ZM170.521 0.973999V15.5H166.309V4.43H161.719L161.584 6.995C161.512 8.903 161.332 10.487 161.044 11.747C160.756 13.007 160.288 13.997 159.64 14.717C158.992 15.437 158.092 15.797 156.94 15.797C156.328 15.797 155.599 15.689 154.753 15.473L154.969 12.017C155.257 12.053 155.464 12.071 155.59 12.071C156.22 12.071 156.688 11.846 156.994 11.396C157.318 10.928 157.534 10.343 157.642 9.641C157.75 8.921 157.831 7.976 157.885 6.806L158.101 0.973999H170.521Z" fill="#2C78F6"/>
</symbol><symbol id="search" viewBox="0 0 21 21">
<path fill-rule="evenodd" clip-rule="evenodd" d="M0 8.87984C0 13.7768 4.03182 17.761 8.98774 17.761C11.2052 17.761 13.2377 16.9632 14.8068 15.6429L19.547 20.7461C19.6973 20.908 19.9028 20.9901 20.1088 20.9901C20.293 20.9901 20.4781 20.9243 20.6245 20.792C20.9347 20.5104 20.955 20.0337 20.6707 19.7273L15.8817 14.5715C17.1879 13.0291 17.9751 11.0436 17.9751 8.87984C17.9751 3.98307 13.9432 -0.000976562 8.98774 -0.000976562C4.03182 -0.000976562 0 3.98307 0 8.87984ZM1.52482 8.87984C1.52482 4.81383 4.87254 1.50543 8.98774 1.50543C13.1024 1.50543 16.4502 4.81383 16.4502 8.87984C16.4502 12.9462 13.1024 16.2541 8.98774 16.2541C4.87254 16.2541 1.52482 12.9462 1.52482 8.87984Z" fill="#909AAB"/>
</symbol><symbol id="vk" viewBox="0 0 35 35">
<path d="M5.80629 2.49994H30.9415C32.3205 2.49994 33.4391 3.61894 33.4391 5.00003V30C33.4391 31.3811 32.3205 32.5001 30.9415 32.5001H5.80629C4.42736 32.5001 3.30873 31.3811 3.30873 30V5.00003C3.30873 3.61894 4.42737 2.49994 5.80629 2.49994Z" fill="black" fill-opacity="0.01" stroke="#5B80B4"/>
<path d="M26.8239 21.33C26.8033 21.2857 26.7841 21.2489 26.7663 21.2194C26.4714 20.6882 25.9077 20.0362 25.0757 19.2631L25.0581 19.2454L25.0493 19.2368L25.0404 19.2279H25.0315C24.6539 18.8679 24.4148 18.6259 24.3147 18.502C24.1314 18.2659 24.0904 18.027 24.1905 17.7849C24.2613 17.602 24.527 17.2157 24.9872 16.6255C25.2292 16.3127 25.4209 16.0621 25.5624 15.8732C26.5833 14.516 27.0259 13.6487 26.8902 13.271L26.8374 13.1827C26.802 13.1296 26.7105 13.081 26.5632 13.0366C26.4155 12.9924 26.2267 12.9851 25.9965 13.0145L23.4475 13.0322C23.4062 13.0175 23.3472 13.0189 23.2704 13.0366C23.1937 13.0544 23.1553 13.0633 23.1553 13.0633L23.1109 13.0854L23.0757 13.112C23.0462 13.1297 23.0137 13.1606 22.9783 13.2049C22.943 13.249 22.9136 13.3008 22.89 13.3598C22.6125 14.0738 22.2969 14.7376 21.9428 15.3513C21.7245 15.7172 21.5239 16.0343 21.3408 16.3028C21.1579 16.5712 21.0045 16.769 20.8807 16.8957C20.7567 17.0226 20.6448 17.1243 20.5443 17.2011C20.4439 17.2779 20.3673 17.3103 20.3143 17.2985C20.2611 17.2866 20.211 17.2748 20.1636 17.263C20.0811 17.2099 20.0147 17.1376 19.9646 17.0462C19.9143 16.9547 19.8804 16.8396 19.8627 16.7009C19.8451 16.5622 19.8347 16.4428 19.8317 16.3425C19.829 16.2422 19.8303 16.1005 19.8362 15.9176C19.8424 15.7346 19.8451 15.6107 19.8451 15.5458C19.8451 15.3216 19.8495 15.0782 19.8583 14.8156C19.8672 14.553 19.8744 14.345 19.8805 14.1917C19.8865 14.0383 19.8893 13.8759 19.8893 13.7048C19.8893 13.5337 19.8789 13.3995 19.8583 13.3021C19.8379 13.2048 19.8067 13.1103 19.7656 13.0188C19.7242 12.9273 19.6636 12.8566 19.5841 12.8064C19.5045 12.7562 19.4055 12.7164 19.2876 12.6868C18.9749 12.6161 18.5766 12.5778 18.0926 12.5718C16.9951 12.56 16.2899 12.6309 15.9772 12.7843C15.8533 12.8492 15.7411 12.9377 15.6409 13.0498C15.5346 13.1796 15.5198 13.2505 15.5965 13.2622C15.9506 13.3152 16.2013 13.4421 16.3488 13.6427L16.402 13.749C16.4434 13.8257 16.4847 13.9615 16.526 14.1562C16.5672 14.3509 16.5939 14.5662 16.6056 14.8022C16.635 15.233 16.635 15.6018 16.6056 15.9086C16.5761 16.2155 16.5482 16.4544 16.5215 16.6256C16.4949 16.7967 16.4551 16.9353 16.402 17.0415C16.3488 17.1477 16.3135 17.2127 16.2957 17.2362C16.278 17.2598 16.2633 17.2746 16.2516 17.2805C16.1749 17.3098 16.0951 17.3248 16.0125 17.3248C15.9299 17.3248 15.8296 17.2835 15.7116 17.2008C15.5936 17.1182 15.4712 17.0046 15.3443 16.86C15.2174 16.7154 15.0743 16.5133 14.915 16.2537C14.7557 15.9941 14.5905 15.6873 14.4193 15.3333L14.2778 15.0765C14.1892 14.9113 14.0683 14.6708 13.9149 14.3552C13.7614 14.0394 13.6257 13.734 13.5077 13.439C13.4606 13.315 13.3897 13.2207 13.2953 13.1558L13.251 13.1292C13.2216 13.1056 13.1743 13.0806 13.1095 13.0539C13.0445 13.0273 12.9767 13.0082 12.9059 12.9964L10.4806 13.0141C10.2328 13.0141 10.0647 13.0702 9.97613 13.1823L9.94069 13.2354C9.92299 13.2649 9.91406 13.3121 9.91406 13.3771C9.91406 13.442 9.93176 13.5216 9.9672 13.616C10.3212 14.4481 10.7062 15.2505 11.1222 16.0235C11.5382 16.7965 11.8997 17.4192 12.2064 17.891C12.5133 18.3631 12.826 18.8087 13.1447 19.2275C13.4633 19.6465 13.6743 19.915 13.7775 20.033C13.8808 20.1511 13.962 20.2395 14.021 20.2985L14.2423 20.5109C14.3839 20.6525 14.5919 20.8222 14.8663 21.0198C15.1407 21.2176 15.4446 21.4123 15.7779 21.6042C16.1114 21.7958 16.4993 21.9522 16.9419 22.0731C17.3845 22.1942 17.8152 22.2428 18.2342 22.2193H19.2521C19.4585 22.2015 19.615 22.1366 19.7213 22.0245L19.7565 21.9802C19.7802 21.945 19.8023 21.8902 19.8228 21.8166C19.8435 21.7429 19.8538 21.6616 19.8538 21.5732C19.8477 21.3195 19.8671 21.0909 19.9112 20.8873C19.9553 20.6838 20.0056 20.5304 20.0618 20.4271C20.118 20.3239 20.1815 20.2367 20.2521 20.1661C20.3228 20.0953 20.3732 20.0525 20.4028 20.0377C20.4322 20.0229 20.4557 20.0128 20.4734 20.0067C20.615 19.9596 20.7816 20.0052 20.9736 20.144C21.1654 20.2827 21.3453 20.4539 21.5136 20.6574C21.6818 20.8611 21.8838 21.0896 22.1198 21.3433C22.356 21.5971 22.5624 21.7857 22.7394 21.9098L22.9163 22.016C23.0345 22.0869 23.1879 22.1518 23.3768 22.2108C23.5653 22.2698 23.7305 22.2845 23.8723 22.2551L26.1381 22.2197C26.3623 22.2197 26.5366 22.1826 26.6603 22.109C26.7843 22.0352 26.8579 21.954 26.8817 21.8656C26.9053 21.7771 26.9066 21.6767 26.8862 21.5645C26.8652 21.4526 26.8445 21.3743 26.8239 21.33Z" fill="#5B80B4"/>
</symbol></svg>